<svg width="900" height="900" viewBox="0 0 900 900" fill="none" xmlns="http://www.w3.org/2000/svg">
<g clip-path="url(#clip0_108_41)">
<path d="M450 900C698.528 900 900 698.528 900 450C900 201.472 698.528 0 450 0C201.472 0 0 201.472 0 450C0 698.528 201.472 900 450 900Z" fill="#F98D3F"/>
<path d="M900 450C900 509.095 888.36 567.611 865.746 622.207C843.131 676.804 809.984 726.412 768.198 768.198L450 450H900Z" fill="#E34747"/>
<path d="M450.198 900C391.103 900 332.587 888.36 277.991 865.746C223.394 843.131 173.786 809.984 132 768.198L450.198 450L450.198 900Z" fill="#E34747"/>
<path d="M450.198 900C391.103 900 332.587 888.36 277.991 865.746C223.394 843.131 173.786 809.984 132 768.198L450.198 450L450.198 900Z" fill="#F3D950"/>
<path d="M132 768.198C90.2137 726.412 57.0669 676.804 34.4523 622.208C11.8377 567.611 0.198081 509.095 0.198081 450H450.198L132 768.198Z" fill="#78C55E"/>
<path d="M132 132C173.786 90.2137 223.394 57.0669 277.99 34.4523C332.587 11.8377 391.103 0.198081 450.198 0.198081V450.198L132 132Z" fill="#456CF3"/>
<path d="M768.198 132C809.984 173.786 843.131 223.394 865.746 277.99C888.36 332.587 900 391.103 900 450.198H450L768.198 132Z" fill="#E856AD"/>
<path d="M6.10352e-05 450.198C6.10352e-05 391.103 11.6397 332.587 34.2543 277.991C56.8689 223.394 90.0156 173.786 131.802 132L450 450.198L6.10352e-05 450.198Z" fill="#52E0CF"/>
<path d="M450 6.10352e-05C509.095 6.10352e-05 567.611 11.6397 622.207 34.2543C676.804 56.8689 726.412 90.0156 768.198 131.802L450 450V6.10352e-05Z" fill="#DC4EF3"/>
</g>
<defs>
<clipPath id="clip0_108_41">
<rect width="900" height="900" fill="white"/>
</clipPath>
</defs>
</svg>
